<svg width="35.000000" height="35.000000" viewBox="0 0 35 35" fill="none" xmlns="http://www.w3.org/2000/svg" xmlns:xlink="http://www.w3.org/1999/xlink">
	<desc>
			Created with Pixso.
	</desc>
	<defs>
		<clipPath id="clip4_136">
			<rect id="coffee-beans" width="35.000000" height="35.000000" fill="white" fill-opacity="0"/>
		</clipPath>
	</defs>
	<rect id="coffee-beans" width="35.000000" height="35.000000" fill="#FFFFFF" fill-opacity="0"/>
	<g clip-path="url(#clip4_136)">
		<path id="Vector" d="M0.0541382 26.9849C0.600449 31.5459 6.09708 34.985 12.8399 34.985C18.9019 34.985 24.0514 32.1874 25.3643 28.1815L25.3655 28.1794C25.5709 27.5612 25.6769 26.9146 25.6798 26.2631C25.6767 26.0667 25.663 25.8708 25.6388 25.6763L25.6319 25.6141L25.6319 25.6139C25.3931 23.8875 24.5379 22.3062 23.2236 21.1614C24.72 21.8199 26.3324 22.1736 27.967 22.2024C29.3241 22.2278 30.6635 21.8915 31.8475 21.2284L31.8481 21.2275C32.3026 20.9694 32.7216 20.653 33.094 20.2863C33.3741 20.001 33.6244 19.6881 33.8415 19.3524L33.8421 19.3516C36.3037 15.6473 34.7286 9.42236 30.1779 4.87183C25.9639 0.657959 20.1703 -1.05627 16.4007 0.796631C15.7945 1.08997 15.2408 1.48096 14.7618 1.95398C14.5871 2.13293 14.4241 2.32275 14.2733 2.52246L14.273 2.52283C11.4689 6.13379 12.9653 12.6554 17.6799 17.3701C18.1459 17.8346 18.636 18.2743 19.1479 18.6875C17.1336 17.9213 14.9952 17.5325 12.8399 17.541C6.81976 17.541 1.54086 20.4327 0.287827 24.4166C0.0986023 25.0137 0.00141907 25.6364 0 26.2631C0.00341797 26.5044 0.0213776 26.7452 0.0538635 26.9846L0.0541382 26.9849ZM12.8399 33.8177C7.1626 33.8177 2.31657 31.1222 1.35193 27.5608C1.37502 27.5631 1.39867 27.5657 1.42117 27.568C1.62978 27.5916 1.82841 27.6176 2.01393 27.6472C2.041 27.6515 2.06609 27.6562 2.09286 27.6609C2.26613 27.6896 2.43141 27.7207 2.59071 27.7538C2.61722 27.7592 2.64487 27.7643 2.67137 27.77C2.84178 27.8065 3.00621 27.8446 3.1678 27.8843C3.20285 27.8928 3.23761 27.9016 3.27209 27.9102C3.4277 27.9492 3.58159 27.9885 3.73689 28.0291C5.24158 28.4559 6.80096 28.6586 8.36462 28.63C9.92659 28.6588 11.4843 28.4557 12.9867 28.0276C14.3927 27.6238 15.8515 27.4335 17.314 27.4628C18.7771 27.4335 20.2365 27.6238 21.6431 28.0273C21.7893 28.0652 21.9375 28.1034 22.088 28.1414C22.1227 28.1501 22.1575 28.1587 22.1925 28.1675C22.3521 28.2072 22.516 28.2458 22.6864 28.2832C22.7072 28.2878 22.7294 28.2921 22.7505 28.2966C22.9081 28.3302 23.0725 28.3624 23.2441 28.3929C23.2746 28.3983 23.3037 28.4041 23.3344 28.4092C23.5205 28.4412 23.7172 28.4698 23.9249 28.4961C23.9434 28.4987 23.9588 28.5018 23.9776 28.5042C22.4693 31.6217 17.9484 33.8177 12.8399 33.8177ZM29.3526 5.69739C33.1761 9.52124 34.7768 14.7532 33.2465 18.033C33.2308 18.0146 33.2148 17.9965 33.1997 17.9781C33.045 17.7961 32.9017 17.6202 32.774 17.4532C32.7626 17.4385 32.7529 17.4244 32.7418 17.4099C32.6201 17.2493 32.509 17.0942 32.405 16.9431C32.3881 16.9187 32.3705 16.8936 32.3539 16.8694C32.2479 16.7129 32.1487 16.5598 32.0533 16.4083C32.0351 16.3792 32.0171 16.3505 31.9989 16.3213C31.9068 16.1737 31.8168 16.0267 31.7264 15.8782C30.9447 14.5245 29.967 13.2943 28.8254 12.2271C27.7248 11.1194 26.4655 10.1813 25.0893 9.44373C23.7995 8.75488 22.6206 7.87695 21.5915 6.8385C20.522 5.84167 19.6078 4.69006 18.8794 3.42249C18.8053 3.30017 18.7298 3.17651 18.6528 3.052L18.5939 2.95715C18.5112 2.82434 18.426 2.68982 18.3348 2.55164C18.3248 2.53613 18.3137 2.52026 18.3035 2.50488C18.2211 2.38062 18.1333 2.25317 18.0401 2.12244C18.0185 2.09216 17.9977 2.06226 17.9755 2.03149C17.8714 1.88782 17.7603 1.73999 17.6395 1.58667C17.6315 1.57605 17.6249 1.56665 17.6167 1.5564C20.9518 0.434448 25.7425 2.08704 29.3526 5.69739ZM15.5871 2.7793C15.8675 2.50146 16.1812 2.25916 16.5209 2.05859C16.5309 2.07019 16.5392 2.08142 16.5489 2.09302C16.6777 2.24976 16.7948 2.39966 16.9039 2.54504C16.9216 2.56873 16.9407 2.59314 16.9581 2.61658C17.0672 2.76477 17.1675 2.90808 17.2625 3.04834C17.2812 3.07617 17.3001 3.10388 17.3183 3.13147C17.4109 3.27063 17.4995 3.40759 17.5842 3.54333C17.5996 3.56775 17.6147 3.59229 17.6298 3.61682C17.7147 3.75391 17.7979 3.89014 17.8817 4.02832C18.662 5.38049 19.6383 6.60986 20.7788 7.67627C21.8793 8.78369 23.1387 9.72192 24.5148 10.4597C25.8046 11.1482 26.9836 12.0262 28.0126 13.0649C29.0836 14.0629 29.9992 15.2157 30.7293 16.4846C30.7894 16.5833 30.8498 16.6824 30.9111 16.7825C30.9319 16.816 30.9536 16.8506 30.9746 16.8845C31.0177 16.9537 31.0607 17.0229 31.1052 17.093C31.1314 17.1344 31.159 17.1763 31.1858 17.2179C31.2277 17.2832 31.2702 17.3484 31.3146 17.415C31.3443 17.4596 31.3753 17.5051 31.4064 17.5504C31.4506 17.6155 31.4962 17.6813 31.5432 17.7479C31.5774 17.7961 31.6127 17.8451 31.6483 17.8944C31.6968 17.9608 31.7466 18.0283 31.7985 18.0968C31.8376 18.1483 31.8775 18.2008 31.9185 18.2535C31.9724 18.3228 32.0294 18.3937 32.0872 18.4652C32.1314 18.5199 32.1755 18.5747 32.2226 18.6309C32.2835 18.7043 32.3491 18.7802 32.4149 18.8562C32.4656 18.9147 32.515 18.9725 32.5682 19.0323C32.5814 19.0471 32.5925 19.0608 32.6059 19.0757C32.5016 19.2107 32.389 19.3395 32.2687 19.4609C32.0801 19.6478 31.8749 19.8177 31.6558 19.9685L31.6355 19.9463C31.5982 19.9038 31.5648 19.8636 31.5292 19.8223C31.4617 19.7439 31.3944 19.6661 31.3323 19.5909C31.2938 19.5442 31.2579 19.4991 31.2212 19.4535C31.1673 19.3862 31.114 19.3196 31.0638 19.2546C31.028 19.2081 30.9937 19.1628 30.9596 19.1173C30.9131 19.0554 30.8678 18.9941 30.8242 18.9337C30.792 18.8895 30.7607 18.8457 30.7301 18.8021C30.6874 18.7413 30.6458 18.6813 30.6056 18.6217C30.578 18.5809 30.55 18.5402 30.5233 18.4998C30.4825 18.4379 30.4426 18.3766 30.4033 18.3157C30.3793 18.2786 30.3551 18.2412 30.3318 18.2042C30.2896 18.1378 30.2485 18.0717 30.2078 18.0059C30.1884 17.9747 30.1687 17.9435 30.1497 17.9121C30.0918 17.818 30.0342 17.724 29.977 17.6296C29.1944 16.276 28.2164 15.0455 27.0745 13.978C25.9739 12.8702 24.7146 11.9321 23.3384 11.1946C22.0486 10.5061 20.8697 9.62781 19.8406 8.58936C18.7703 7.59167 17.8552 6.43945 17.1257 5.17139C17.0356 5.02344 16.9436 4.87354 16.8495 4.72192C16.8296 4.69006 16.8099 4.65808 16.7897 4.62598C16.6936 4.47314 16.5916 4.31702 16.4836 4.15686C16.4611 4.12317 16.438 4.0896 16.4146 4.05566C16.3021 3.89185 16.181 3.72314 16.0482 3.54724C16.0259 3.51819 16.002 3.48804 15.9795 3.45862C15.8356 3.27148 15.6814 3.07874 15.5064 2.87415L15.5019 2.86853C15.5301 2.83765 15.5583 2.80811 15.5871 2.7793ZM18.5052 16.5448C14.4603 12.4995 12.9322 7.09692 14.7926 3.84106C14.8065 3.85815 14.8213 3.87561 14.835 3.89233C14.9604 4.04688 15.0775 4.19617 15.1844 4.34009C15.2046 4.36719 15.2229 4.39343 15.2425 4.42017C15.3389 4.55212 15.4295 4.68091 15.5144 4.80664C15.5295 4.82935 15.5457 4.85217 15.5606 4.87476C15.6543 5.01514 15.7427 5.15308 15.8284 5.29016C15.8473 5.32007 15.8655 5.34973 15.884 5.37939C15.9661 5.51196 16.047 5.64417 16.1282 5.77783C16.9096 7.13025 17.8868 8.36023 19.0279 9.42725C20.1284 10.5347 21.3878 11.4728 22.7639 12.2103C24.0537 12.899 25.2327 13.7771 26.2617 14.8156C27.3329 15.8141 28.2491 16.9672 28.9798 18.2361C29.0696 18.3837 29.1613 18.5327 29.2551 18.6838C29.2771 18.7191 29.2987 18.7542 29.3212 18.7896C29.419 18.9446 29.5219 19.103 29.6321 19.2657C29.6544 19.2985 29.678 19.3322 29.7008 19.3655C29.8151 19.531 29.9362 19.7009 30.0716 19.879L30.089 19.903C30.2263 20.0828 30.3819 20.2731 30.5478 20.4695C30.5691 20.4945 30.5848 20.5167 30.6068 20.5425C27.2939 21.9135 22.2504 20.2891 18.5052 16.5448ZM12.8399 18.7083C18.5676 18.7083 23.4234 21.4332 24.3433 25.0316C24.3204 25.0291 24.2971 25.0269 24.2749 25.0245C24.0628 25.0009 23.8611 24.9746 23.673 24.9447C23.6479 24.9408 23.6245 24.9362 23.5997 24.9323C23.4268 24.9037 23.2618 24.8727 23.103 24.8398C23.0714 24.8333 23.0386 24.8273 23.0076 24.8204C22.8403 24.7849 22.6787 24.7472 22.52 24.7085C22.4784 24.6982 22.4365 24.688 22.3952 24.6774C22.2438 24.6395 22.0937 24.6013 21.9423 24.562C20.4377 24.1351 18.878 23.9325 17.314 23.9609C15.7521 23.9323 14.1944 24.1351 12.692 24.5635C11.2859 24.9669 9.82713 25.1573 8.36462 25.1283C6.90128 25.1573 5.44191 24.9669 4.03497 24.5637C3.8905 24.5261 3.74431 24.4885 3.59612 24.4512C3.55565 24.4409 3.51518 24.4309 3.47415 24.4207C3.31627 24.3816 3.1544 24.3434 2.9857 24.3066C2.9592 24.3007 2.93127 24.2953 2.90419 24.2896C2.74831 24.2565 2.58559 24.2249 2.41603 24.1949C2.38469 24.1896 2.35477 24.1836 2.32285 24.1781C2.13562 24.1465 1.93698 24.118 1.72838 24.0918C1.70729 24.0892 1.68962 24.0858 1.66826 24.0833C3.145 20.9303 7.68153 18.7083 12.8399 18.7083ZM1.2821 25.2148L1.30405 25.2174C1.52975 25.2405 1.73807 25.2684 1.93671 25.2987C1.9649 25.3032 1.99483 25.3069 2.02277 25.3115C2.21426 25.3423 2.39438 25.3759 2.5685 25.4119C2.60355 25.4189 2.63889 25.426 2.67337 25.4337C2.84151 25.4696 3.00423 25.507 3.16353 25.546C3.20029 25.5552 3.23648 25.5643 3.27295 25.5734C3.42941 25.6127 3.58472 25.6526 3.74089 25.6934C5.24385 26.1211 6.80211 26.324 8.36462 26.2955C9.92659 26.3243 11.4843 26.1211 12.9867 25.6931C14.3927 25.2893 15.8515 25.0989 17.314 25.1283C18.7791 25.0992 20.2402 25.2893 21.6491 25.6919C21.7525 25.7188 21.8566 25.7455 21.9614 25.7723C22.0013 25.7826 22.0421 25.7925 22.0822 25.8025C22.1541 25.8208 22.2262 25.8387 22.2997 25.8563C22.3424 25.8666 22.3866 25.877 22.4302 25.8872C22.5029 25.9043 22.5764 25.921 22.6514 25.9376C22.6978 25.9479 22.7451 25.9579 22.7927 25.9678C22.8674 25.9838 22.9437 25.9991 23.0215 26.0143C23.0717 26.0239 23.1224 26.0337 23.1737 26.0431C23.2541 26.0576 23.337 26.0718 23.4208 26.0854C23.4732 26.094 23.5254 26.1025 23.5792 26.1108C23.6699 26.1249 23.7645 26.1373 23.8602 26.1501C23.9118 26.157 23.9622 26.1642 24.0158 26.1704C24.1275 26.1838 24.2447 26.1958 24.3638 26.2075C24.4068 26.2114 24.447 26.2163 24.4911 26.2203L24.5122 26.2225C24.5125 26.236 24.5125 26.2496 24.5125 26.2631C24.5114 26.6375 24.4669 27.0105 24.38 27.3748L24.3564 27.3718C24.1346 27.3488 23.93 27.3212 23.7345 27.2913C23.7043 27.2864 23.6727 27.2823 23.6431 27.2776C23.4547 27.2471 23.2772 27.2137 23.1059 27.1783C23.0688 27.171 23.0321 27.1633 22.9956 27.1556C22.8303 27.12 22.6696 27.0829 22.5126 27.0444C22.4747 27.035 22.437 27.0254 22.3994 27.016C22.245 26.9772 22.0919 26.9379 21.9375 26.8977C20.4345 26.4696 18.8766 26.2667 17.314 26.2955C15.7521 26.2667 14.1944 26.4696 12.692 26.8979C11.2859 27.3015 9.82713 27.4918 8.36462 27.4628C6.89984 27.4916 5.43878 27.3015 4.03014 26.899C3.92441 26.8717 3.81812 26.8441 3.71097 26.8168C3.67934 26.8087 3.64656 26.8008 3.61435 26.7925C3.53712 26.7732 3.45934 26.7538 3.37982 26.7344C3.33594 26.7239 3.29062 26.7136 3.24588 26.703C3.17578 26.6865 3.1051 26.6703 3.033 26.6543C2.98341 26.6432 2.9324 26.6327 2.88139 26.6218C2.811 26.6071 2.7392 26.5925 2.66624 26.5782C2.61153 26.5674 2.55624 26.5571 2.49982 26.5469C2.42628 26.5334 2.35048 26.5206 2.27383 26.5078C2.21455 26.4982 2.15527 26.4882 2.09372 26.479C2.01479 26.4668 1.93214 26.4557 1.84921 26.4448C1.78537 26.4363 1.7224 26.4275 1.65628 26.4194C1.5648 26.4087 1.46849 26.3989 1.37216 26.3893C1.30946 26.3831 1.24934 26.3759 1.18408 26.3702L1.16925 26.3688C1.16812 26.3334 1.16727 26.2981 1.16727 26.2631C1.16783 25.9105 1.2063 25.5591 1.2821 25.2148Z" fill="#000000" fill-opacity="1.000000" fill-rule="nonzero"/>
		<path id="Vector" d="M6.6884 30.1178C6.44846 29.9939 6.22047 29.8636 6.00446 29.7272C5.73174 29.5564 5.37238 29.6388 5.20111 29.9109C5.02985 30.1831 5.11105 30.5427 5.38264 30.7148C5.62544 30.8679 5.88164 31.0144 6.1515 31.1545C6.43791 31.3027 6.79015 31.1908 6.93832 30.9047C7.08652 30.6183 6.97481 30.266 6.6884 30.1178Z" fill="#000000" fill-opacity="1.000000" fill-rule="nonzero"/>
		<path id="Vector" d="M20.4496 29.1677C18.6255 30.6394 15.8518 31.4832 12.8399 31.4832C11.3176 31.4955 9.8029 31.2678 8.35152 30.8083C8.04544 30.7092 7.71687 30.8768 7.61713 31.1829C7.51738 31.4889 7.68439 31.8177 7.99016 31.9181C9.55811 32.4156 11.1947 32.6627 12.8399 32.6505C16.1137 32.6505 19.1544 31.7123 21.1826 30.0763C21.4333 29.8737 21.4727 29.5063 21.2704 29.2555C21.068 29.0045 20.7004 28.9652 20.4496 29.1677Z" fill="#000000" fill-opacity="1.000000" fill-rule="nonzero"/>
		<path id="Vector" d="M16.6894 9.21289C16.625 8.98291 16.5702 8.75574 16.5255 8.53174C16.4622 8.2157 16.1547 8.01086 15.8387 8.0741C15.5227 8.13733 15.3178 8.44482 15.381 8.76086C15.4315 9.01257 15.493 9.26782 15.5654 9.52747C15.6523 9.83777 15.9743 10.0188 16.2847 9.93213C16.595 9.84521 16.7763 9.52319 16.6894 9.21289Z" fill="#000000" fill-opacity="1.000000" fill-rule="nonzero"/>
		<path id="Vector" d="M28.1331 19.2919C28.1531 18.9702 27.9083 18.6932 27.5865 18.6736C25.1865 18.5256 22.3393 17.0774 20.1561 14.8939C19.0569 13.8081 18.1422 12.5503 17.4482 11.1698C17.3046 10.8817 16.9552 10.7643 16.6668 10.9071C16.3784 11.0498 16.2602 11.3992 16.4024 11.6879C17.1527 13.182 18.1419 14.5437 19.3308 15.7192C21.7428 18.1315 24.8023 19.6715 27.5147 19.8385C27.527 19.8394 27.5392 19.8396 27.5512 19.8396C27.8593 19.8391 28.114 19.5994 28.1331 19.2919Z" fill="#000000" fill-opacity="1.000000" fill-rule="nonzero"/>
	</g>
</svg>
